<mxfile host="65bd71144e">
    <diagram id="VmxgzMS0ozi97tRiIRKJ" name="第 1 页">
        <mxGraphModel dx="1315" dy="2176" grid="1" gridSize="10" guides="1" tooltips="1" connect="1" arrows="1" fold="1" page="1" pageScale="1" pageWidth="827" pageHeight="1169" background="#ffffff" math="0" shadow="0">
            <root>
                <mxCell id="0"/>
                <mxCell id="1" parent="0"/>
                <mxCell id="30" value="" style="rounded=0;whiteSpace=wrap;html=1;strokeColor=none;strokeWidth=2;fontSize=16;fillColor=#b1ddf0;" vertex="1" parent="1">
                    <mxGeometry x="210" y="470" width="630" height="130" as="geometry"/>
                </mxCell>
                <mxCell id="29" value="" style="rounded=0;whiteSpace=wrap;html=1;strokeColor=none;strokeWidth=2;fontSize=16;fillColor=#ffcccc;" vertex="1" parent="1">
                    <mxGeometry x="210" y="-30" width="630" height="430" as="geometry"/>
                </mxCell>
                <mxCell id="2" value="" style="rounded=0;whiteSpace=wrap;html=1;fillColor=#1ba1e2;fontColor=#000000;strokeColor=#006EAF;fontSize=16;" vertex="1" parent="1">
                    <mxGeometry x="200" y="-40" width="10" height="640" as="geometry"/>
                </mxCell>
                <mxCell id="3" value="" style="rounded=0;whiteSpace=wrap;html=1;fillColor=#1ba1e2;fontColor=#000000;strokeColor=#006EAF;fontSize=16;" vertex="1" parent="1">
                    <mxGeometry x="840" y="-40" width="10" height="640" as="geometry"/>
                </mxCell>
                <mxCell id="4" value="&lt;font style=&quot;font-size: 24px;&quot;&gt;浏览器&lt;/font&gt;" style="text;html=1;strokeColor=none;fillColor=none;align=center;verticalAlign=middle;whiteSpace=wrap;rounded=0;fontColor=#000000;fontSize=16;" vertex="1" parent="1">
                    <mxGeometry x="150" y="-50" width="40" height="130" as="geometry"/>
                </mxCell>
                <mxCell id="5" value="服务器" style="text;html=1;strokeColor=none;fillColor=none;align=center;verticalAlign=middle;whiteSpace=wrap;rounded=0;fontColor=#000000;fontSize=24;" vertex="1" parent="1">
                    <mxGeometry x="860" y="-40" width="40" height="130" as="geometry"/>
                </mxCell>
                <mxCell id="6" value="" style="endArrow=classic;html=1;fontColor=#000000;exitX=1.167;exitY=0.104;exitDx=0;exitDy=0;exitPerimeter=0;strokeWidth=2;strokeColor=#000000;fontSize=16;" edge="1" parent="1" source="2">
                    <mxGeometry width="50" height="50" relative="1" as="geometry">
                        <mxPoint x="380" y="340" as="sourcePoint"/>
                        <mxPoint x="840" y="25" as="targetPoint"/>
                    </mxGeometry>
                </mxCell>
                <mxCell id="9" value="服务器确认" style="text;html=1;strokeColor=none;fillColor=none;align=center;verticalAlign=middle;whiteSpace=wrap;rounded=0;fontColor=#000000;fontSize=16;" vertex="1" parent="1">
                    <mxGeometry x="470" y="310" width="130" height="30" as="geometry"/>
                </mxCell>
                <mxCell id="10" value="&lt;font color=&quot;#ff0000&quot;&gt;公钥加密pre-master&lt;/font&gt; + 浏览器确认" style="text;html=1;strokeColor=none;fillColor=none;align=center;verticalAlign=middle;whiteSpace=wrap;rounded=0;fontColor=#000000;fontSize=16;" vertex="1" parent="1">
                    <mxGeometry x="360" y="260" width="310" height="20" as="geometry"/>
                </mxCell>
                <mxCell id="11" value="对称加密套件列表 + 非对称加密套件列表 + &lt;font color=&quot;#ff0000&quot;&gt;client-random&lt;/font&gt;" style="text;html=1;strokeColor=none;fillColor=none;align=center;verticalAlign=middle;whiteSpace=wrap;rounded=0;fontColor=#000000;fontSize=16;" vertex="1" parent="1">
                    <mxGeometry x="290" y="-20" width="490" height="50" as="geometry"/>
                </mxCell>
                <mxCell id="12" value="" style="endArrow=classic;html=1;strokeColor=#000000;strokeWidth=2;fontColor=#000000;exitX=-0.189;exitY=0.183;exitDx=0;exitDy=0;exitPerimeter=0;entryX=0;entryY=0.25;entryDx=0;entryDy=0;fontSize=16;" edge="1" parent="1" source="3" target="29">
                    <mxGeometry width="50" height="50" relative="1" as="geometry">
                        <mxPoint x="380" y="220" as="sourcePoint"/>
                        <mxPoint x="430" y="170" as="targetPoint"/>
                    </mxGeometry>
                </mxCell>
                <mxCell id="13" value="选中的对称加密套件 + 选中的非对称加密套件 +&lt;font color=&quot;#ff0000&quot;&gt; service-random&lt;/font&gt; + &lt;font color=&quot;#ff0000&quot;&gt;数字证书&lt;/font&gt;" style="text;html=1;strokeColor=none;fillColor=none;align=center;verticalAlign=middle;whiteSpace=wrap;rounded=0;fontColor=#000000;fontSize=16;" vertex="1" parent="1">
                    <mxGeometry x="260" y="40" width="570" height="50" as="geometry"/>
                </mxCell>
                <mxCell id="14" value="" style="shape=curlyBracket;whiteSpace=wrap;html=1;rounded=1;labelPosition=left;verticalLabelPosition=middle;align=right;verticalAlign=middle;fontColor=#000000;strokeColor=#000000;strokeWidth=2;fontSize=16;" vertex="1" parent="1">
                    <mxGeometry x="160" y="80" width="40" height="80" as="geometry"/>
                </mxCell>
                <mxCell id="15" value="验证数字证书" style="text;html=1;strokeColor=none;fillColor=none;align=center;verticalAlign=middle;whiteSpace=wrap;rounded=0;strokeWidth=2;fontColor=#000000;fontSize=16;" vertex="1" parent="1">
                    <mxGeometry x="60" y="107.5" width="100" height="25" as="geometry"/>
                </mxCell>
                <mxCell id="16" value="" style="shape=curlyBracket;whiteSpace=wrap;html=1;rounded=1;labelPosition=left;verticalLabelPosition=middle;align=right;verticalAlign=middle;strokeColor=#000000;strokeWidth=2;fontColor=#000000;fontSize=16;" vertex="1" parent="1">
                    <mxGeometry x="160" y="170" width="40" height="120" as="geometry"/>
                </mxCell>
                <mxCell id="17" value="生成随机数 &lt;br&gt;&lt;font color=&quot;#ff0000&quot;&gt;pre-master&lt;/font&gt;" style="text;html=1;strokeColor=none;fillColor=none;align=center;verticalAlign=middle;whiteSpace=wrap;rounded=0;strokeWidth=2;fontColor=#000000;fontSize=16;" vertex="1" parent="1">
                    <mxGeometry x="40" y="215" width="140" height="30" as="geometry"/>
                </mxCell>
                <mxCell id="18" value="" style="endArrow=classic;html=1;strokeColor=#000000;strokeWidth=2;fontColor=#000000;exitX=1;exitY=0.516;exitDx=0;exitDy=0;fontSize=16;exitPerimeter=0;" edge="1" parent="1" source="2">
                    <mxGeometry width="50" height="50" relative="1" as="geometry">
                        <mxPoint x="380" y="300" as="sourcePoint"/>
                        <mxPoint x="840" y="290" as="targetPoint"/>
                    </mxGeometry>
                </mxCell>
                <mxCell id="19" value="" style="shape=curlyBracket;whiteSpace=wrap;html=1;rounded=1;flipH=1;labelPosition=right;verticalLabelPosition=middle;align=left;verticalAlign=middle;strokeColor=#000000;strokeWidth=2;fontColor=#000000;fontSize=16;" vertex="1" parent="1">
                    <mxGeometry x="850" y="290" width="40" height="70" as="geometry"/>
                </mxCell>
                <mxCell id="20" value="私钥解密加密后的&lt;br&gt;&lt;font color=&quot;#ff0000&quot;&gt;pre-master&lt;/font&gt;" style="text;html=1;strokeColor=none;fillColor=none;align=center;verticalAlign=middle;whiteSpace=wrap;rounded=0;strokeWidth=2;fontColor=#000000;fontSize=16;" vertex="1" parent="1">
                    <mxGeometry x="870" y="310" width="190" height="40" as="geometry"/>
                </mxCell>
                <mxCell id="21" value="" style="endArrow=classic;html=1;strokeColor=#000000;strokeWidth=2;fontColor=#000000;exitX=-0.108;exitY=0.598;exitDx=0;exitDy=0;exitPerimeter=0;fontSize=16;entryX=1.334;entryY=0.604;entryDx=0;entryDy=0;entryPerimeter=0;" edge="1" parent="1" source="3" target="2">
                    <mxGeometry width="50" height="50" relative="1" as="geometry">
                        <mxPoint x="260" y="370" as="sourcePoint"/>
                        <mxPoint x="220" y="343" as="targetPoint"/>
                    </mxGeometry>
                </mxCell>
                <mxCell id="22" value="" style="shape=curlyBracket;whiteSpace=wrap;html=1;rounded=1;labelPosition=left;verticalLabelPosition=middle;align=right;verticalAlign=middle;strokeColor=#000000;strokeWidth=2;fontColor=#000000;fontSize=16;" vertex="1" parent="1">
                    <mxGeometry x="160" y="300" width="40" height="190" as="geometry"/>
                </mxCell>
                <mxCell id="23" value="client-random + service-random +&lt;br&gt;&amp;nbsp;pre-master&lt;br style=&quot;font-size: 16px;&quot;&gt;&amp;nbsp;生成&lt;br style=&quot;font-size: 16px;&quot;&gt;&lt;font color=&quot;#ff0000&quot;&gt;master secret&lt;/font&gt;" style="text;html=1;strokeColor=none;fillColor=none;align=center;verticalAlign=middle;whiteSpace=wrap;rounded=0;strokeWidth=2;fontColor=#000000;fontSize=16;" vertex="1" parent="1">
                    <mxGeometry x="10" y="340" width="160" height="100" as="geometry"/>
                </mxCell>
                <mxCell id="24" value="client-random + &lt;br&gt;service-random +&lt;br&gt;&amp;nbsp;pre-master&lt;br style=&quot;font-size: 16px;&quot;&gt;&amp;nbsp;生成&lt;br style=&quot;font-size: 16px;&quot;&gt;&lt;font color=&quot;#ff0000&quot;&gt;master secret&lt;/font&gt;" style="text;html=1;strokeColor=none;fillColor=none;align=center;verticalAlign=middle;whiteSpace=wrap;rounded=0;strokeWidth=2;fontColor=#000000;fontSize=16;" vertex="1" parent="1">
                    <mxGeometry x="870" y="390" width="180" height="90" as="geometry"/>
                </mxCell>
                <mxCell id="25" value="" style="shape=curlyBracket;whiteSpace=wrap;html=1;rounded=1;flipH=1;labelPosition=right;verticalLabelPosition=middle;align=left;verticalAlign=middle;strokeColor=#000000;strokeWidth=2;fontColor=#000000;fontSize=16;" vertex="1" parent="1">
                    <mxGeometry x="850" y="370" width="40" height="120" as="geometry"/>
                </mxCell>
                <mxCell id="26" value="" style="endArrow=classic;html=1;strokeColor=#000000;strokeWidth=2;fontColor=#000000;fontSize=16;entryX=-0.166;entryY=0.833;entryDx=0;entryDy=0;entryPerimeter=0;" edge="1" parent="1" target="3">
                    <mxGeometry width="50" height="50" relative="1" as="geometry">
                        <mxPoint x="210" y="493" as="sourcePoint"/>
                        <mxPoint x="830" y="490" as="targetPoint"/>
                    </mxGeometry>
                </mxCell>
                <mxCell id="27" value="" style="endArrow=classic;html=1;strokeColor=#000000;strokeWidth=2;fontColor=#000000;exitX=-0.548;exitY=0.933;exitDx=0;exitDy=0;exitPerimeter=0;entryX=1;entryY=0.933;entryDx=0;entryDy=0;entryPerimeter=0;fontSize=16;" edge="1" parent="1" source="3" target="2">
                    <mxGeometry width="50" height="50" relative="1" as="geometry">
                        <mxPoint x="370" y="480" as="sourcePoint"/>
                        <mxPoint x="420" y="430" as="targetPoint"/>
                    </mxGeometry>
                </mxCell>
                <mxCell id="28" value="传输使用master secret 加密的数据" style="text;html=1;strokeColor=none;fillColor=none;align=center;verticalAlign=middle;whiteSpace=wrap;rounded=0;strokeWidth=2;fontColor=#000000;fontSize=16;" vertex="1" parent="1">
                    <mxGeometry x="325" y="530" width="400" height="20" as="geometry"/>
                </mxCell>
                <mxCell id="34" value="" style="rounded=0;whiteSpace=wrap;html=1;dashed=1;strokeColor=none;strokeWidth=2;fontSize=16;fillColor=#f8cecc;" vertex="1" parent="1">
                    <mxGeometry x="890" y="505" width="120" height="35" as="geometry"/>
                </mxCell>
                <mxCell id="35" value="" style="rounded=0;whiteSpace=wrap;html=1;dashed=1;strokeColor=none;strokeWidth=2;fontSize=16;fillColor=#b1ddf0;" vertex="1" parent="1">
                    <mxGeometry x="890" y="550" width="120" height="38" as="geometry"/>
                </mxCell>
                <mxCell id="36" value="安全层握手协商" style="text;html=1;strokeColor=none;fillColor=none;align=center;verticalAlign=middle;whiteSpace=wrap;rounded=0;dashed=1;strokeWidth=2;fontSize=16;fontColor=#000000;" vertex="1" parent="1">
                    <mxGeometry x="1010" y="505" width="130" height="35" as="geometry"/>
                </mxCell>
                <mxCell id="37" value="传输数据" style="text;html=1;strokeColor=none;fillColor=none;align=center;verticalAlign=middle;whiteSpace=wrap;rounded=0;dashed=1;strokeWidth=2;fontSize=16;fontColor=#000000;" vertex="1" parent="1">
                    <mxGeometry x="990" y="553" width="130" height="35" as="geometry"/>
                </mxCell>
            </root>
        </mxGraphModel>
    </diagram>
</mxfile>